[Header]
FileType HTR
DataType HTRS
FileVersion 1
NumSegments 64
NumFrames 4
DataFrameRate 24
EulerRotationOrder ZYX
CalibrationUnits mm
RotationUnits Degrees
GlobalAxisofGravity Y
BoneLengthAxis Y
ScaleFactor 1.0
[SegmentNames&Hierarchy]
Hips	GLOBAL
Spine	Hips
Spine1	Spine
Spine2	Spine1
Neck	Spine2
Head	Neck
LeftEye	Head
RightEye	Head
LeftShoulder	Spine2
LeftArm	LeftShoulder
LeftForeArm	LeftArm
LeftHand	LeftForeArm
LeftHandThumb1	LeftHand
LeftHandThumb2	LeftHandThumb1
LeftHandThumb3	LeftHandThumb2
LeftHandThumb4	LeftHandThumb3
LeftHandIndex1	LeftHand
LeftHandIndex2	LeftHandIndex1
LeftHandIndex3	LeftHandIndex2
LeftHandIndex4	LeftHandIndex3
LeftHandMiddle1	LeftHand
LeftHandMiddle2	LeftHandMiddle1
LeftHandMiddle3	LeftHandMiddle2
LeftHandMiddle4	LeftHandMiddle3
LeftHandRing1	LeftHand
LeftHandRing2	LeftHandRing1
LeftHandRing3	LeftHandRing2
LeftHandRing4	LeftHandRing3
LeftHandPinky1	LeftHand
LeftHandPinky2	LeftHandPinky1
LeftHandPinky3	LeftHandPinky2
LeftHandPinky4	LeftHandPinky3
RightShoulder	Spine2
RightArm	RightShoulder
RightForeArm	RightArm
RightHand	RightForeArm
RightHandPinky1	RightHand
RightHandPinky2	RightHandPinky1
RightHandPinky3	RightHandPinky2
RightHandPinky4	RightHandPinky3
RightHandRing1	RightHand
RightHandRing2	RightHandRing1
RightHandRing3	RightHandRing2
RightHandRing4	RightHandRing3
RightHandMiddle1	RightHand
RightHandMiddle2	RightHandMiddle1
RightHandMiddle3	RightHandMiddle2
RightHandMiddle4	RightHandMiddle3
RightHandIndex1	RightHand
RightHandIndex2	RightHandIndex1
RightHandIndex3	RightHandIndex2
RightHandIndex4	RightHandIndex3
RightHandThumb1	RightHand
RightHandThumb2	RightHandThumb1
RightHandThumb3	RightHandThumb2
RightHandThumb4	RightHandThumb3
LeftUpLeg	Hips
LeftLeg	LeftUpLeg
LeftFoot	LeftLeg
LeftToeBase	LeftFoot
RightUpLeg	Hips
RightLeg	RightUpLeg
RightFoot	RightLeg
RightToeBase	RightFoot
[BasePosition]
Hips	0	0	0	0	0	0	1
Spine	0	0	0	0	0	0	1
Spine1	0	0	0	0	0	0	1
Spine2	0	0	0	0	0	0	1
Neck	0	0	0	0	0	0	1
Head	0	0	0	0	0	0	1
LeftEye	0	0	0	0	0	0	1
RightEye	0	0	0	0	0	0	1
LeftShoulder	0	0	0	0	0	0	1
LeftArm	0	0	0	0	0	0	1
LeftForeArm	0	0	0	0	0	0	1
LeftHand	0	0	0	0	0	0	1
LeftHandThumb1	0	0	0	0	0	0	1
LeftHandThumb2	0	0	0	0	0	0	1
LeftHandThumb3	0	0	0	0	0	0	1
LeftHandThumb4	0	0	0	0	0	0	1
LeftHandIndex1	0	0	0	0	0	0	1
LeftHandIndex2	0	0	0	0	0	0	1
LeftHandIndex3	0	0	0	0	0	0	1
LeftHandIndex4	0	0	0	0	0	0	1
LeftHandMiddle1	0	0	0	0	0	0	1
LeftHandMiddle2	0	0	0	0	0	0	1
LeftHandMiddle3	0	0	0	0	0	0	1
LeftHandMiddle4	0	0	0	0	0	0	1
LeftHandRing1	0	0	0	0	0	0	1
LeftHandRing2	0	0	0	0	0	0	1
LeftHandRing3	0	0	0	0	0	0	1
LeftHandRing4	0	0	0	0	0	0	1
LeftHandPinky1	0	0	0	0	0	0	1
LeftHandPinky2	0	0	0	0	0	0	1
LeftHandPinky3	0	0	0	0	0	0	1
LeftHandPinky4	0	0	0	0	0	0	1
RightShoulder	0	0	0	0	0	0	1
RightArm	0	0	0	0	0	0	1
RightForeArm	0	0	0	0	0	0	1
RightHand	0	0	0	0	0	0	1
RightHandPinky1	0	0	0	0	0	0	1
RightHandPinky2	0	0	0	0	0	0	1
RightHandPinky3	0	0	0	0	0	0	1
RightHandPinky4	0	0	0	0	0	0	1
RightHandRing1	0	0	0	0	0	0	1
RightHandRing2	0	0	0	0	0	0	1
RightHandRing3	0	0	0	0	0	0	1
RightHandRing4	0	0	0	0	0	0	1
RightHandMiddle1	0	0	0	0	0	0	1
RightHandMiddle2	0	0	0	0	0	0	1
RightHandMiddle3	0	0	0	0	0	0	1
RightHandMiddle4	0	0	0	0	0	0	1
RightHandIndex1	0	0	0	0	0	0	1
RightHandIndex2	0	0	0	0	0	0	1
RightHandIndex3	0	0	0	0	0	0	1
RightHandIndex4	0	0	0	0	0	0	1
RightHandThumb1	0	0	0	0	0	0	1
RightHandThumb2	0	0	0	0	0	0	1
RightHandThumb3	0	0	0	0	0	0	1
RightHandThumb4	0	0	0	0	0	0	1
LeftUpLeg	0	0	0	0	0	0	1
LeftLeg	0	0	0	0	0	0	1
LeftFoot	0	0	0	0	0	0	1
LeftToeBase	0	0	0	0	0	0	1
RightUpLeg	0	0	0	0	0	0	1
RightLeg	0	0	0	0	0	0	1
RightFoot	0	0	0	0	0	0	1
RightToeBase	0	0	0	0	0	0	1
[Hips]
76	8.25709343	1017.053955	20.40354156	-0.9530468583	1.284513116	-5.513231754	1.0
77	8.047916412	1017.010986	20.36122131	-0.9602019787	1.28806448	-5.511845589	1.0
78	7.838721752	1016.968689	20.31921387	-0.9671365023	1.291542053	-5.510291576	1.0
79	7.630207539	1016.92749	20.27744484	-0.9738330245	1.29498148	-5.508471966	1.0
[Spine]
76	0	101.8159943	1.315000057	0.8992990255	-1.31744349	2.987091541	1.0
77	0	101.8159943	1.315000057	0.91065377	-1.311863065	2.990878105	1.0
78	0	101.8159943	1.315000057	0.9220653772	-1.306293845	2.994581461	1.0
79	0	101.8159943	1.315000057	0.933558166	-1.300777078	2.998151779	1.0
[Spine1]
76	0	100.8349991	-10.00800037	0.2475422919	0.1325262189	5.945711136	1.0
77	0	100.8349991	-10.00800037	0.2785231769	0.1361529082	5.945371151	1.0
78	0	100.8349991	-10.00800037	0.3094444573	0.1397793293	5.945027351	1.0
79	0	100.8349991	-10.00800037	0.34029302	0.1433967948	5.944681168	1.0
[Spine2]
76	0	91	-13.73399925	0.2792508304	0.7041738629	5.854076862	1.0
77	0	91	-13.73399925	0.31039235	0.7045609951	5.854116917	1.0
78	0	91	-13.73399925	0.3414742649	0.7049506903	5.854152203	1.0
79	0	91	-13.73399925	0.3724835217	0.7053368092	5.854184628	1.0
[Neck]
76	0	166.7169952	-25.16200066	0.974814415	-0.2479909956	-2.174073219	1.0
77	0	166.7169952	-25.16200066	0.9599341154	-0.2504107952	-2.170730591	1.0
78	0	166.7169952	-25.16200066	0.9452807307	-0.2527393997	-2.167665243	1.0
79	0	166.7169952	-25.16200066	0.9309164882	-0.2549600899	-2.164974689	1.0
[Head]
76	0	96.17900085	16.84999847	1.760591388	0.8431670666	-8.02419281	1.0
77	0	96.17900085	16.84999847	1.711243987	0.832657218	-8.023386955	1.0
78	0	96.17900085	16.84999847	1.662787199	0.8223811388	-8.023084641	1.0
79	0	96.17900085	16.84999847	1.615788221	0.8123903871	-8.023535728	1.0
[LeftEye]
76	30.6760006	64.09500122	92.83599854	0	0	0	1.0
77	30.6760006	64.09500122	92.83599854	0	0	0	1.0
78	30.6760006	64.09500122	92.83599854	0	0	0	1.0
79	30.6760006	64.09500122	92.83599854	0	0	0	1.0
[RightEye]
76	-30.6760006	64.09500122	92.83499908	0	0	0	1.0
77	-30.6760006	64.09500122	92.83499908	0	0	0	1.0
78	-30.6760006	64.09500122	92.83499908	0	0	0	1.0
79	-30.6760006	64.09500122	92.83499908	0	0	0	1.0
[LeftShoulder]
76	45.70400238	109.4599991	-26.28000069	4.7401824	-13.5996418	-1.02575779	1.0
77	45.70400238	109.4599991	-26.28000069	4.752493382	-13.5847702	-1.32885313	1.0
78	45.70400238	109.4599991	-26.28000069	4.764823437	-13.56960583	-1.631875753	1.0
79	45.70400238	109.4599991	-26.28000069	4.777172565	-13.55411911	-1.934628367	1.0
[LeftArm]
76	105.923996	-5.24600029	-22.32099915	-3.012260437	4.590428829	-88.77676392	1.0
77	105.923996	-5.24600029	-22.32099915	-3.027219534	4.576375008	-88.4673996	1.0
78	105.923996	-5.24600029	-22.32099915	-3.04234314	4.562406063	-88.15825653	1.0
79	105.923996	-5.24600029	-22.32099915	-3.057627916	4.548550129	-87.84954071	1.0
[LeftForeArm]
76	278.414978	-0.0009999999311	0	-1.840774985e-06	-14.48476315	-0.0001980605739	1.0
77	278.414978	-0.0009999999311	0	3.4461425e-07	-14.48708916	-0.0002039078827	1.0
78	278.414978	-0.0009999999311	0	2.262532007e-06	-14.4895134	-0.0002090815105	1.0
79	278.414978	-0.0009999999311	0	3.794755003e-06	-14.49201393	-0.0002131981455	1.0
[LeftHand]
76	283.2879944	0	0	-27.5173378	-0.9699232578	-9.988315582	1.0
77	283.2879944	0	0	-27.52524757	-0.9784225225	-9.993388176	1.0
78	283.2879944	0	0	-27.53373528	-0.9871356487	-9.998088837	1.0
79	283.2879944	0	0	-27.54275894	-0.9961043596	-10.00242424	1.0
[LeftHandThumb1]
76	24.6609993	-15.75	26.8239994	18.32147789	-3.216663837	10.70203972	1.0
77	24.6609993	-15.75	26.8239994	18.39045715	-3.051256895	10.82352924	1.0
78	24.6609993	-15.75	26.8239994	18.45943451	-2.885979414	10.94495583	1.0
79	24.6609993	-15.75	26.8239994	18.52835464	-2.720941544	11.06623173	1.0
[LeftHandThumb2]
76	32.29800034	-18.64699936	18.64699936	-0.1046117544	33.57938766	-2.611544847	1.0
77	32.29800034	-18.64699936	18.64699936	-0.02083451115	33.7866478	-2.561446428	1.0
78	32.29800034	-18.64699936	18.64699936	0.06290911138	33.9937706	-2.511364222	1.0
79	32.29800034	-18.64699936	18.64699936	0.1465557963	34.20061111	-2.461336851	1.0
[LeftHandThumb3]
76	26.52600098	-15.31499958	15.31499958	2.314581871	10.12621784	0.1887539774	1.0
77	26.52600098	-15.31499958	15.31499958	2.372043133	10.3331852	0.2413171977	1.0
78	26.52600098	-15.31499958	15.31499958	2.429484606	10.54001236	0.2938648164	1.0
79	26.52600098	-15.31499958	15.31499958	2.486861944	10.74655724	0.346355617	1.0
[LeftHandThumb4]
76	19.54599953	-11.28499985	11.28499985	0	0	0	1.0
77	19.54599953	-11.28499985	11.28499985	0	0	0	1.0
78	19.54599953	-11.28499985	11.28499985	0	0	0	1.0
79	19.54599953	-11.28499985	11.28499985	0	0	0	1.0
[LeftHandIndex1]
76	91.09299469	-5.170999527	22.60099792	-0.4218668342	4.807943821	-9.303358078	1.0
77	91.09299469	-5.170999527	22.60099792	-0.4242705703	4.81061697	-9.332064629	1.0
78	91.09299469	-5.170999527	22.60099792	-0.4266728461	4.813287735	-9.360751152	1.0
79	91.09299469	-5.170999527	22.60099792	-0.4290719628	4.815954685	-9.389398575	1.0
[LeftHandIndex2]
76	36.76399994	0	0	-0.7002871633	2.899739027	-22.02925301	1.0
77	36.76399994	0	0	-0.7017359138	2.90226531	-22.05790329	1.0
78	36.76399994	0	0	-0.7031837106	2.904789925	-22.08653641	1.0
79	36.76399994	0	0	-0.704629302	2.907310963	-22.11513138	1.0
[LeftHandIndex3]
76	28.83100128	0	0	-0.1373850405	0.949036181	-11.62384319	1.0
77	28.83100128	0	0	-0.1379626393	0.9518526196	-11.65243435	1.0
78	28.83100128	0	0	-0.1385400295	0.9546673298	-11.68100834	1.0
79	28.83100128	0	0	-0.1391168237	0.957478404	-11.70954323	1.0
[LeftHandIndex4]
76	23.92700005	0	0	0	0	0	1.0
77	23.92700005	0	0	0	0	0	1.0
78	23.92700005	0	0	0	0	0	1.0
79	23.92700005	0	0	0	0	0	1.0
[LeftHandMiddle1]
76	95.33399963	0	0	-1.700368404	8.78192997	-17.35318756	1.0
77	95.33399963	0	0	-1.703908324	8.783943176	-17.38215828	1.0
78	95.33399963	0	0	-1.707445979	8.785955429	-17.41111183	1.0
79	95.33399963	0	0	-1.710978866	8.787964821	-17.44001961	1.0
[LeftHandMiddle2]
76	36.98199844	0	0	-1.528537273	3.930661917	-34.8793602	1.0
77	36.98199844	0	0	-1.530562282	3.932748556	-34.9081192	1.0
78	36.98199844	0	0	-1.532586098	3.934834003	-34.93686295	1.0
79	36.98199844	0	0	-1.534607053	3.936916113	-34.96556091	1.0
[LeftHandMiddle3]
76	29.50900078	0	0	-0.1842931658	1.625935793	-13.71860981	1.0
77	29.50900078	0	0	-0.1850203872	1.628687501	-13.74721432	1.0
78	29.50900078	0	0	-0.185747236	1.631437302	-13.7758007	1.0
79	29.50900078	0	0	-0.186473161	1.634183407	-13.80434799	1.0
[LeftHandMiddle4]
76	28.3390007	0	0	0	0	0	1.0
77	28.3390007	0	0	0	0	0	1.0
78	28.3390007	0	0	0	0	0	1.0
79	28.3390007	0	0	0	0	0	1.0
[LeftHandRing1]
76	91.04499817	-0.4390000105	-18.65100098	-3.138237476	11.56869698	-27.82782555	1.0
77	91.04499817	-0.4390000105	-18.65100098	-3.167789459	11.5800972	-28.04977989	1.0
78	91.04499817	-0.4390000105	-18.65100098	-3.197324514	11.59148121	-28.27158928	1.0
79	91.04499817	-0.4390000105	-18.65100098	-3.226821899	11.60284138	-28.49309921	1.0
[LeftHandRing2]
76	31.54000092	0	0	-1.251208663	4.121408463	-41.06137466	1.0
77	31.54000092	0	0	-1.264777303	4.138362885	-41.28098679	1.0
78	31.54000092	0	0	-1.278342128	4.155302525	-41.50045395	1.0
79	31.54000092	0	0	-1.291891932	4.172215462	-41.71962357	1.0
[LeftHandRing3]
76	29.37700081	0	0	-0.1139098853	1.985304475	-20.18938828	1.0
77	29.37700081	0	0	-0.1192660183	2.006316185	-20.40727997	1.0
78	29.37700081	0	0	-0.1246246397	2.027312517	-20.62502861	1.0
79	29.37700081	0	0	-0.1299804449	2.048279285	-20.84248352	1.0
[LeftHandRing4]
76	26.47500038	0	0	0	0	0	1.0
77	26.47500038	0	0	0	0	0	1.0
78	26.47500038	0	0	0	0	0	1.0
79	26.47500038	0	0	0	0	0	1.0
[LeftHandPinky1]
76	80.77799988	-4.887000084	-38.06099701	-5.466750145	16.111166	-37.79259491	1.0
77	80.77799988	-4.887000084	-38.06099701	-5.529995918	16.11242294	-38.02031708	1.0
78	80.77799988	-4.887000084	-38.06099701	-5.593202114	16.11367035	-38.24788666	1.0
79	80.77799988	-4.887000084	-38.06099701	-5.65632391	16.11490631	-38.47515106	1.0
[LeftHandPinky2]
76	36	0	0	-2.010915756	3.872378826	-46.51861954	1.0
77	36	0	0	-2.027495384	3.886563301	-46.73742294	1.0
78	36	0	0	-2.044068336	3.900733948	-46.95608521	1.0
79	36	0	0	-2.060621738	3.914881229	-47.17444611	1.0
[LeftHandPinky3]
76	21.14200211	0	0	-0.5815447569	2.910154104	-21.38027573	1.0
77	21.14200211	0	0	-0.5911362767	2.929780245	-21.59844017	1.0
78	21.14200211	0	0	-0.6007272601	2.94939065	-21.81646347	1.0
79	21.14200211	0	0	-0.6103096604	2.968972206	-22.03419304	1.0
[LeftHandPinky4]
76	19.75699997	0	0	0	0	0	1.0
77	19.75699997	0	0	0	0	0	1.0
78	19.75699997	0	0	0	0	0	1.0
79	19.75699997	0	0	0	0	0	1.0
[RightShoulder]
76	-45.70000076	109.4620056	-26.28000069	5.580340385	2.865576029	1.02288413	1.0
77	-45.70000076	109.4620056	-26.28000069	5.537775993	2.852512121	1.309319854	1.0
78	-45.70000076	109.4620056	-26.28000069	5.495220184	2.838877678	1.594525218	1.0
79	-45.70000076	109.4620056	-26.28000069	5.452700138	2.824572086	1.878000855	1.0
[RightArm]
76	-105.9280014	-5.248000145	-22.32099915	0.7440301776	1.42645371	72.15267944	1.0
77	-105.9280014	-5.248000145	-22.32099915	0.7107722163	1.438190341	71.86323547	1.0
78	-105.9280014	-5.248000145	-22.32099915	0.6782512069	1.450877428	71.57496643	1.0
79	-105.9280014	-5.248000145	-22.32099915	0.6467038393	1.464770317	71.28835297	1.0
[RightForeArm]
76	-278.414978	0	0	-4.644988621e-06	17.70523834	-3.553381976e-05	1.0
77	-278.414978	0	0	-4.053818884e-06	17.70823097	-3.209452188e-05	1.0
78	-278.414978	0	0	-3.452695182e-06	17.71058846	-2.805418626e-05	1.0
79	-278.414978	0	0	-2.863677537e-06	17.71218681	-2.348240923e-05	1.0
[RightHand]
76	-283.2879944	0	0.0009999999311	-12.44734383	-6.759047508	11.81352043	1.0
77	-283.2879944	0	0.0009999999311	-12.45396805	-6.755476952	11.80766678	1.0
78	-283.2879944	0	0.0009999999311	-12.46000767	-6.752144337	11.80228043	1.0
79	-283.2879944	0	0.0009999999311	-12.46523571	-6.749125481	11.79748249	1.0
[RightHandPinky1]
76	-80.76699829	-4.885000229	-38.06000137	-5.466644287	-16.11225891	37.79292679	1.0
77	-80.76699829	-4.885000229	-38.06000137	-5.529889107	-16.11351204	38.02064896	1.0
78	-80.76699829	-4.885000229	-38.06000137	-5.593094349	-16.11475372	38.24822617	1.0
79	-80.76699829	-4.885000229	-38.06000137	-5.656215191	-16.11598969	38.47548676	1.0
[RightHandPinky2]
76	-36	0	0.0009999999311	-2.009510279	-3.870705366	46.51858902	1.0
77	-36	0	0.0009999999311	-2.026083469	-3.884892464	46.73739243	1.0
78	-36	0	0.0009999999311	-2.042649269	-3.899065495	46.95605469	1.0
79	-36	0	0.0009999999311	-2.059195757	-3.913215399	47.17441559	1.0
[RightHandPinky3]
76	-21.14200211	0	0	-0.8056838512	-0.02050915733	22.97502899	1.0
77	-21.14200211	0	0	-0.8158063293	-0.03985808417	23.1927166	1.0
78	-21.14200211	0	0	-0.8259276152	-0.05919128284	23.41025925	1.0
79	-21.14200211	0	0	-0.8360392451	-0.07849597186	23.62750816	1.0
[RightHandPinky4]
76	-19.75699997	0	0	0	0	0	1.0
77	-19.75699997	0	0	0	0	0	1.0
78	-19.75699997	0	0	0	0	0	1.0
79	-19.75699997	0	0	0	0	0	1.0
[RightHandRing1]
76	-91.03599548	-0.4390000105	-18.65100098	-3.13815093	-11.56832027	27.82793045	1.0
77	-91.03599548	-0.4390000105	-18.65100098	-3.167701483	-11.57971573	28.0498867	1.0
78	-91.03599548	-0.4390000105	-18.65100098	-3.197235823	-11.59109497	28.27169609	1.0
79	-91.03599548	-0.4390000105	-18.65100098	-3.226732254	-11.60245228	28.49320602	1.0
[RightHandRing2]
76	-31.54000092	0	0	-1.251010895	-4.12088728	41.06142807	1.0
77	-31.54000092	0	0	-1.264577746	-4.137839317	41.28104019	1.0
78	-31.54000092	0	0	-1.278140426	-4.154776096	41.50050735	1.0
79	-31.54000092	0	0	-1.291688561	-4.171686649	41.71967697	1.0
[RightHandRing3]
76	-29.37700081	0	0	-0.1577790529	0.007597493473	18.66598892	1.0
77	-29.37700081	0	0	-0.162571013	-0.01354609616	18.8836956	1.0
78	-29.37700081	0	0	-0.1673658043	-0.03467426449	19.10125732	1.0
79	-29.37700081	0	0	-0.1721584648	-0.05577258021	19.31852341	1.0
[RightHandRing4]
76	-26.47500038	0	0	0	0	0	1.0
77	-26.47500038	0	0	0	0	0	1.0
78	-26.47500038	0	0	0	0	0	1.0
79	-26.47500038	0	0	0	0	0	1.0
[RightHandMiddle1]
76	-95.32500458	0	0	-1.700333357	-8.781689644	17.35326195	1.0
77	-95.32500458	0	0	-1.703873277	-8.783701897	17.38223267	1.0
78	-95.32500458	0	0	-1.707411051	-8.785713196	17.4111824	1.0
79	-95.32500458	0	0	-1.710943937	-8.787721634	17.44009209	1.0
[RightHandMiddle2]
76	-36.98199844	0	0	-1.528392673	-3.93020606	34.87942505	1.0
77	-36.98199844	0	0	-1.530418038	-3.932292461	34.90818787	1.0
78	-36.98199844	0	0	-1.532442093	-3.934376955	34.9369278	1.0
79	-36.98199844	0	0	-1.534463406	-3.936458588	34.96562576	1.0
[RightHandMiddle3]
76	-29.50900078	0	0	-0.2975552678	-1.815998912	17.3535614	1.0
77	-29.50900078	0	0	-0.2984554768	-1.818698645	17.38217354	1.0
78	-29.50900078	0	0	-0.2993551791	-1.821396589	17.41076851	1.0
79	-29.50900078	0	0	-0.3002536595	-1.824090838	17.43932343	1.0
[RightHandMiddle4]
76	-28.3390007	0	0.0009999999311	0	0	0	1.0
77	-28.3390007	0	0.0009999999311	0	0	0	1.0
78	-28.3390007	0	0.0009999999311	0	0	0	1.0
79	-28.3390007	0	0.0009999999311	0	0	0	1.0
[RightHandIndex1]
76	-91.08300018	-5.167999744	22.60099792	-0.4218607545	-4.80781126	9.303416252	1.0
77	-91.08300018	-5.167999744	22.60099792	-0.4242640138	-4.810483456	9.332118034	1.0
78	-91.08300018	-5.167999744	22.60099792	-0.4266658723	-4.813153267	9.36080265	1.0
79	-91.08300018	-5.167999744	22.60099792	-0.4290646017	-4.81581974	9.389448166	1.0
[RightHandIndex2]
76	-36.76399994	0	0	-0.7002260685	-2.899437904	22.02928162	1.0
77	-36.76399994	0	0	-0.7016736269	-2.901963472	22.05792999	1.0
78	-36.76399994	0	0	-0.7031204104	-2.90448761	22.08656311	1.0
79	-36.76399994	0	0	-0.7045652866	-2.90700841	22.11515427	1.0
[RightHandIndex3]
76	-28.83100128	0	0	-0.2752835751	-0.2988755703	15.29759121	1.0
77	-28.83100128	0	0	-0.2760403752	-0.3016487658	15.32617855	1.0
78	-28.83100128	0	0	-0.276796788	-0.3044201434	15.35474491	1.0
79	-28.83100128	0	0	-0.277552247	-0.3071877658	15.38327312	1.0
[RightHandIndex4]
76	-23.92700005	0	0	0	0	0	1.0
77	-23.92700005	0	0	0	0	0	1.0
78	-23.92700005	0	0	0	0	0	1.0
79	-23.92700005	0	0	0	0	0	1.0
[RightHandThumb1]
76	-24.64799881	-15.72700024	26.82600021	18.32116318	3.21687007	-10.70226383	1.0
77	-24.64799881	-15.72700024	26.82600021	18.39014053	3.051461935	-10.82375145	1.0
78	-24.64799881	-15.72700024	26.82600021	18.4591198	2.886183023	-10.94517708	1.0
79	-24.64799881	-15.72700024	26.82600021	18.52803802	2.721143723	-11.06645012	1.0
[RightHandThumb2]
76	-32.29800034	-18.64699936	18.64699936	-0.105391793	-33.57806778	2.61335206	1.0
77	-32.29800034	-18.64699936	18.64699936	-0.02162284963	-33.78532791	2.563266993	1.0
78	-32.29800034	-18.64699936	18.64699936	0.0621124506	-33.9924469	2.513197422	1.0
79	-32.29800034	-18.64699936	18.64699936	0.1457506716	-34.19929123	2.463181496	1.0
[RightHandThumb3]
76	-26.52600098	-15.31399918	15.31399918	2.080661058	-9.275576591	0.6276436448	1.0
77	-26.52600098	-15.31399918	15.31399918	2.134992361	-9.483329773	0.5764169693	1.0
78	-26.52600098	-15.31399918	15.31399918	2.189304829	-9.690942764	0.5252064466	1.0
79	-26.52600098	-15.31399918	15.31399918	2.243556261	-9.898271561	0.4740521312	1.0
[RightHandThumb4]
76	-19.54599953	-11.28499985	11.28499985	0	0	0	1.0
77	-19.54599953	-11.28499985	11.28499985	0	0	0	1.0
78	-19.54599953	-11.28499985	11.28499985	0	0	0	1.0
79	-19.54599953	-11.28499985	11.28499985	0	0	0	1.0
[LeftUpLeg]
76	82.07800293	-67.51699829	-15.99599934	-17.29896736	15.2494278	12.08602619	1.0
77	82.07800293	-67.51699829	-15.99599934	-17.29304123	15.25366116	12.09625721	1.0
78	82.07800293	-67.51699829	-15.99599934	-17.28698349	15.25779915	12.10632038	1.0
79	82.07800293	-67.51699829	-15.99599934	-17.28070831	15.26178837	12.11609936	1.0
[LeftLeg]
76	0	-443.7049866	2.845999956	25.24567795	7.725554943	6.154387951	1.0
77	0	-443.7049866	2.845999956	25.24141121	7.725914001	6.157933235	1.0
78	0	-443.7049866	2.845999956	25.23659897	7.72637701	6.161319256	1.0
79	0	-443.7049866	2.845999956	25.23101807	7.726988316	6.16446352	1.0
[LeftFoot]
76	0	-444.2789917	-29.8219986	-4.446818829	2.737150669	-11.18703079	1.0
77	0	-444.2789917	-29.8219986	-4.449652672	2.727564812	-11.19501591	1.0
78	0	-444.2789917	-29.8219986	-4.452480316	2.718133211	-11.20299435	1.0
79	0	-444.2789917	-29.8219986	-4.455070496	2.708834171	-11.21093845	1.0
[LeftToeBase]
76	0	-87.28699493	107.1060028	-0.4766176343	1.852346213e-05	-2.048511988e-06	1.0
77	0	-87.28699493	107.1060028	-0.4781256318	2.239201785e-05	-2.024996547e-06	1.0
78	0	-87.28699493	107.1060028	-0.479590565	2.586486153e-05	-1.924525804e-06	1.0
79	0	-87.28699493	107.1060028	-0.4809857011	2.892994235e-05	-1.732233727e-06	1.0
[RightUpLeg]
76	-82.07800293	-67.51699829	-15.99599934	-1.442532063	-4.602176189	10.82639408	1.0
77	-82.07800293	-67.51699829	-15.99599934	-1.448573589	-4.602660656	10.836689	1.0
78	-82.07800293	-67.51699829	-15.99599934	-1.454656005	-4.603121281	10.84687614	1.0
79	-82.07800293	-67.51699829	-15.99599934	-1.460667014	-4.603512764	10.85688877	1.0
[RightLeg]
76	0	-443.7049866	2.861999989	10.89473343	-5.238130569	2.317088842	1.0
77	0	-443.7049866	2.861999989	10.91552448	-5.244882584	2.318036556	1.0
78	0	-443.7049866	2.861999989	10.93597984	-5.251606464	2.318903446	1.0
79	0	-443.7049866	2.861999989	10.95580673	-5.258334637	2.319553852	1.0
[RightFoot]
76	0	-444.2770081	-29.83799934	-9.666613579	-0.3242106736	-7.87331295	1.0
77	0	-444.2770081	-29.83799934	-9.677194595	-0.3262608051	-7.887646675	1.0
78	0	-444.2770081	-29.83799934	-9.687604904	-0.3283014297	-7.901925087	1.0
79	0	-444.2770081	-29.83799934	-9.697682381	-0.3303162754	-7.916027546	1.0
[RightToeBase]
76	0	-87.28699493	107.1060028	-0.6152427197	-2.891870963e-06	1.644881422e-06	1.0
77	0	-87.28699493	107.1060028	-0.6095176339	-3.632468179e-06	1.868483537e-06	1.0
78	0	-87.28699493	107.1060028	-0.6038281322	-4.386514775e-06	2.090446742e-06	1.0
79	0	-87.28699493	107.1060028	-0.5982148647	-5.167023119e-06	2.306677743e-06	1.0
[EndOfFile]
